<?xml version="1.0" encoding="utf-8"?>
<!-- Generator: Adobe Illustrator 19.0.0, SVG Export Plug-In . SVG Version: 6.00 Build 0)  -->
<svg version="1.1" id="Layer_1" xmlns="http://www.w3.org/2000/svg" xmlns:xlink="http://www.w3.org/1999/xlink" x="0px" y="0px"
	 viewBox="0 0 64 64" width="64" height="64">
<style type="text/css">
	.st0{fill:#333333;}
	.st1{fill:none;}
</style>
<path id="XMLID_3_" class="st0" d="M3.5,57.2V6.8h6.7v50.4H3.5z"/>
<path id="XMLID_2_" class="st1" d="M50.9,28.4c1.8-1.6,2.7-3.9,2.7-6.8c0-2.1-0.5-3.9-1.6-5.4c-1.1-1.5-2.5-2.5-4.2-3
	c-1.1-0.3-3.2-0.4-6.2-0.4H22v18h19.7C46,30.8,49.1,30,50.9,28.4z"/>
<path id="XMLID_5_" class="st0" d="M58.9,14.5c-1-2.1-2.4-3.7-4-4.9c-1.7-1.2-3.8-1.9-6.2-2.4c-1.8-0.3-4.3-0.5-7.7-0.5H22v6h19.6
	c3,0,5.1,0.1,6.2,0.4c1.7,0.5,3.1,1.5,4.2,3c1.1,1.5,1.6,3.3,1.6,5.4c0,2.9-0.9,5.2-2.7,6.8c-1.8,1.6-4.9,2.4-9.2,2.4H22v16.1h6.7
	V36.7h12.9c7.1,0,12.1-1.5,14.8-4.5c2.7-3,4.1-6.6,4.1-10.9C60.5,18.9,60,16.6,58.9,14.5z"/>
<path id="XMLID_1_" class="st0" d="M22,57.2v-6.7h6.7v6.7H22z"/>
</svg>
